<?xml version="1.0" encoding="utf-8"?>
<!-- Generator: Adobe Illustrator 23.0.3, SVG Export Plug-In . SVG Version: 6.00 Build 0)  -->
<svg version="1.1" id="Layer_1" xmlns="http://www.w3.org/2000/svg" xmlns:xlink="http://www.w3.org/1999/xlink" x="0px" y="0px"
	 width="32px" height="32px" viewBox="0 0 32 32" style="enable-background:new 0 0 32 32;" xml:space="preserve">
<style type="text/css">
	.st0{fill:#FBBC04;}
	.st1{fill:#EA4335;}
	.st2{fill:#34A853;}
	.st3{fill:#4285F4;}
</style>
<path class="st0" d="M7.9,11.9c1.5-3.1,4.6-5,8.1-5.1V0.5C7.4,0.5,0.5,7.4,0.5,16h6.4C6.9,14.6,7.3,13.2,7.9,11.9z"/>
<path class="st0" d="M11,14.2c-0.2,0.6-0.3,1.2-0.3,1.8H16v-5.6C13.7,10.5,11.7,12.1,11,14.2z"/>
<path class="st1" d="M16.2,6.8c2.3,0,4.5,0.8,6.2,2.4l-2.6,2.6c-1-0.9-2.2-1.4-3.5-1.4c-0.1,0-0.2,0-0.3,0V16l0.1,0v-1.7H25
	c0,0.6,0,1.1,0,1.7h6.5c0-8.6-6.9-15.5-15.5-15.5v6.3C16.1,6.8,16.1,6.8,16.2,6.8z"/>
<path class="st2" d="M11,17.8L11,17.8c0.7,2.1,2.7,3.7,5,3.8V16h-5.3C10.7,16.6,10.8,17.2,11,17.8z"/>
<path class="st2" d="M7.9,20.1c-0.7-1.3-1-2.7-1-4.1H0.5c0,8.6,6.9,15.5,15.5,15.5v-6.3C12.6,25.1,9.5,23.2,7.9,20.1z"/>
<path class="st3" d="M16.2,21.6c1.2,0,2.3-0.3,3.1-0.9l0,0c1-0.6,1.6-1.7,1.8-2.8h-5V16H16v5.6C16.1,21.6,16.1,21.6,16.2,21.6z"/>
<path class="st3" d="M25,16c0,0.1,0,0.1,0,0.2c0,2.8-1,5.2-2.7,6.8l0,0c-1.5,1.4-3.6,2.2-6.1,2.2c-0.1,0-0.1,0-0.2,0v6.3
	c8.6,0,15.5-6.9,15.5-15.5H25z"/>
</svg>
